<svg xmlns="http://www.w3.org/2000/svg" xmlns:xlink="http://www.w3.org/1999/xlink" width="26" height="23" viewBox="0 0 26 23">
  <metadata><?xpacket begin="﻿" id="W5M0MpCehiHzreSzNTczkc9d"?>
<x:xmpmeta xmlns:x="adobe:ns:meta/" x:xmptk="Adobe XMP Core 5.6-c138 79.159824, 2016/09/14-01:09:01        ">
   <rdf:RDF xmlns:rdf="http://www.w3.org/1999/02/22-rdf-syntax-ns#">
      <rdf:Description rdf:about=""/>
   </rdf:RDF>
</x:xmpmeta>
                                                                                                    
                                                                                                    
                                                                                                    
                                                                                                    
                                                                                                    
                                                                                                    
                                                                                                    
                                                                                                    
                                                                                                    
                                                                                                    
                                                                                                    
                                                                                                    
                                                                                                    
                                                                                                    
                                                                                                    
                                                                                                    
                                                                                                    
                                                                                                    
                                                                                                    
                                                                                                    
                           
<?xpacket end="w"?></metadata>
<defs>
    <style>
      .cls-1 {
        fill: #ffffff;
        fill-rule: evenodd;
        filter: url(#filter);
      }
    </style>
    <filter id="filter" x="587" y="35" width="26" height="23" filterUnits="userSpaceOnUse">
      <feOffset result="offset" dy="2" in="SourceAlpha"/>
      <feGaussianBlur result="blur" stdDeviation="1.732"/>
      <feFlood result="flood" flood-opacity="0.21"/>
      <feComposite result="composite" operator="in" in2="blur"/>
      <feBlend result="blend" in="SourceGraphic"/>
    </filter>
  </defs>
  <path class="cls-1" d="M608.688,47.857h-7.876a1.286,1.286,0,1,1,0-2.572h7.876A1.286,1.286,0,1,1,608.688,47.857Zm0-5.143h-7.876a1.286,1.286,0,1,1,0-2.571h7.876A1.286,1.286,0,1,1,608.688,42.714Zm0-5.143h-7.876a1.286,1.286,0,1,1,0-2.571h7.876A1.286,1.286,0,1,1,608.688,37.571ZM594.25,53h-2.625A2.6,2.6,0,0,1,589,50.429V47.857a2.6,2.6,0,0,1,2.625-2.572h2.625a2.6,2.6,0,0,1,2.625,2.572v2.571A2.6,2.6,0,0,1,594.25,53Zm-1.312-5.143a1.286,1.286,0,1,0,1.312,1.286A1.3,1.3,0,0,0,592.938,47.857Zm1.312-5.143h-2.625A2.6,2.6,0,0,1,589,40.143V37.571A2.6,2.6,0,0,1,591.625,35h2.625a2.6,2.6,0,0,1,2.625,2.571v2.572A2.6,2.6,0,0,1,594.25,42.714Zm-1.312-5.143a1.286,1.286,0,1,0,1.312,1.286A1.3,1.3,0,0,0,592.938,37.571Zm7.874,12.857h7.876a1.286,1.286,0,1,1,0,2.571h-7.876A1.286,1.286,0,1,1,600.812,50.429Z" transform="translate(-587 -35)"/>
</svg>
