<svg xmlns="http://www.w3.org/2000/svg" xmlns:xlink="http://www.w3.org/1999/xlink" width="26" height="26" viewBox="0 0 26 26">
  <metadata><?xpacket begin="﻿" id="W5M0MpCehiHzreSzNTczkc9d"?>
<x:xmpmeta xmlns:x="adobe:ns:meta/" x:xmptk="Adobe XMP Core 5.6-c138 79.159824, 2016/09/14-01:09:01        ">
   <rdf:RDF xmlns:rdf="http://www.w3.org/1999/02/22-rdf-syntax-ns#">
      <rdf:Description rdf:about=""/>
   </rdf:RDF>
</x:xmpmeta>
                                                                                                    
                                                                                                    
                                                                                                    
                                                                                                    
                                                                                                    
                                                                                                    
                                                                                                    
                                                                                                    
                                                                                                    
                                                                                                    
                                                                                                    
                                                                                                    
                                                                                                    
                                                                                                    
                                                                                                    
                                                                                                    
                                                                                                    
                                                                                                    
                                                                                                    
                                                                                                    
                           
<?xpacket end="w"?></metadata>
<defs>
    <style>
      .cls-1 {
        fill: #212121;
        fill-rule: evenodd;
        filter: url(#filter);
      }
    </style>
    <filter id="filter" x="186" y="33" width="26" height="26" filterUnits="userSpaceOnUse">
      <feOffset result="offset" dy="2" in="SourceAlpha"/>
      <feGaussianBlur result="blur" stdDeviation="1.732"/>
      <feFlood result="flood" flood-opacity="0.21"/>
      <feComposite result="composite" operator="in" in2="blur"/>
      <feBlend result="blend" in="SourceGraphic"/>
    </filter>
  </defs>
  <path class="cls-1" d="M209,48.094a4.594,4.594,0,0,1-4.594,4.594h-2.467A5.2,5.2,0,0,1,198.5,54h-5.25a5.235,5.235,0,0,1-3.139-9.435,9.029,9.029,0,0,1-.8-3.69c0-4.349,2.938-7.875,6.562-7.875a5.94,5.94,0,0,1,4.3,1.974h0a4.372,4.372,0,0,1,2.259-.661c2.9,0,5.25,2.938,5.25,6.563a7.745,7.745,0,0,1-.771,3.378A4.583,4.583,0,0,1,209,48.094Zm-18.375.656a2.625,2.625,0,0,0,2.625,2.625h5.25a2.615,2.615,0,0,0,1.695-4.614,5.685,5.685,0,0,1-8.64,0A2.609,2.609,0,0,0,190.625,48.75Zm5.25-13.125c-2.175,0-3.937,2.351-3.937,5.25s1.762,5.25,3.937,5.25,3.937-2.35,3.937-5.25S198.05,35.625,195.875,35.625Zm5.109,0.364-0.009-.014Zm1.454,0.949a1.842,1.842,0,0,0-.815.213h0a9.02,9.02,0,0,1,.815,3.725,8.889,8.889,0,0,1-.422,2.678c0-.019.014-0.035,0.02-0.053h2.345a5.133,5.133,0,0,0,.682-2.625C205.063,38.7,203.887,36.938,202.438,36.938Zm1.968,9.188h-1.384c-0.042-.072-0.1-0.128-0.148-0.2a5.123,5.123,0,0,1,.876,2.822,5.22,5.22,0,0,1-.186,1.313h0.842A1.969,1.969,0,1,0,204.406,46.125Zm-1.938,6.028,0.041-.049Z" transform="translate(-186 -33)"/>
</svg>
