<svg xmlns="http://www.w3.org/2000/svg" xmlns:xlink="http://www.w3.org/1999/xlink" width="23" height="19" viewBox="0 0 23 19">
  <metadata><?xpacket begin="﻿" id="W5M0MpCehiHzreSzNTczkc9d"?>
<x:xmpmeta xmlns:x="adobe:ns:meta/" x:xmptk="Adobe XMP Core 5.6-c138 79.159824, 2016/09/14-01:09:01        ">
   <rdf:RDF xmlns:rdf="http://www.w3.org/1999/02/22-rdf-syntax-ns#">
      <rdf:Description rdf:about=""/>
   </rdf:RDF>
</x:xmpmeta>
                                                                                                    
                                                                                                    
                                                                                                    
                                                                                                    
                                                                                                    
                                                                                                    
                                                                                                    
                                                                                                    
                                                                                                    
                                                                                                    
                                                                                                    
                                                                                                    
                                                                                                    
                                                                                                    
                                                                                                    
                                                                                                    
                                                                                                    
                                                                                                    
                                                                                                    
                                                                                                    
                           
<?xpacket end="w"?></metadata>
<defs>
    <style>
      .cls-1 {
        fill: #fff;
        fill-rule: evenodd;
        filter: url(#filter);
      }
    </style>
    <filter id="filter" x="698" y="36" width="23" height="19" filterUnits="userSpaceOnUse">
      <feOffset result="offset" dy="2" in="SourceAlpha"/>
      <feGaussianBlur result="blur" stdDeviation="1.732"/>
      <feFlood result="flood" flood-opacity="0.21"/>
      <feComposite result="composite" operator="in" in2="blur"/>
      <feBlend result="blend" in="SourceGraphic"/>
    </filter>
  </defs>
  <path class="cls-1" d="M712.375,49.882V47.5a4.69,4.69,0,0,0,0-9V36.118A7.023,7.023,0,0,1,712.375,49.882Zm-2.25-3.382V44.167a1.167,1.167,0,0,0,0-2.333V39.5A3.5,3.5,0,0,1,710.125,46.5ZM706.75,50c-0.633,0-3.375-3.5-3.375-3.5h-2.25A1.147,1.147,0,0,1,700,45.333V40.667a1.147,1.147,0,0,1,1.125-1.167h2.25s2.707-3.5,3.375-3.5a0.935,0.935,0,0,1,1.125,1.167V48.833A0.935,0.935,0,0,1,706.75,50Zm-1.119-9.661c-0.168.207-.334,0.417-0.5,0.625l-0.675.873h-2.2V44.17h2.2l0.674,0.862c0.165,0.209.334,0.42,0.5,0.629V40.339Z" transform="translate(-698 -36)"/>


<line x1="18" y1="1" x2="2" y2="14" stroke="#2f3c4c" stroke-width="3"/></svg>
